<svg version="1.1" xmlns="http://www.w3.org/2000/svg" xmlns:xlink="http://www.w3.org/1999/xlink" x="0px" y="0px"
	 viewBox="0 0 32 32" enable-background="new 0 0 32 32" width="100%" height="100%" xml:space="preserve">
<g>
	<path fill="transparent" d="M16.1,31.8c-1.1,0-1.9-0.4-2-0.5L2,24.8c-1.1-0.6-2-2-2-3.3V9.8c0-1.9,1.3-3,2.1-3.3l12-5.8
		c0.5-0.3,1.2-0.4,1.9-0.4c0.7,0,1.4,0.1,1.9,0.4l12,5.8C30.7,6.8,32,7.8,32,9.8v11.7c0,1.3-0.9,2.7-2,3.3l-12.1,6.5
		C17.3,31.7,16.7,31.8,16.1,31.8C16.1,31.8,16.1,31.8,16.1,31.8z"/>
	<g>
		<path fill="{{ colour_one }}" d="M14.6,15.7L2.5,9.2C2.3,9.1,2.2,9.1,2,9.1c-0.3,0-0.5,0.3-0.5,0.7v11.7c0,0.7,0.5,1.6,1.2,2L14.8,30
			c0.2,0.1,0.3,0.1,0.4,0.1c0.3,0,0.5-0.3,0.5-0.7V17.7C15.7,17,15.2,16.1,14.6,15.7z"/>
		<path fill="{{ colour_two }}" d="M16.2,17.7v11.7c0,0.4,0.2,0.7,0.5,0.7c0.1,0,0.3,0,0.4-0.1l12.1-6.5c0.6-0.3,1.2-1.2,1.2-2V9.8
			c0-0.4-0.2-0.7-0.5-0.7c-0.1,0-0.3,0-0.4,0.1l-12.1,6.5C16.8,16.1,16.2,17,16.2,17.7z"/>
		<path fill="{{ colour_three }}" d="M17.2,15.3l12.1-6.5c0.2-0.1,0.4-0.3,0.4-0.5c0-0.1-0.2-0.3-0.4-0.4L17.2,2c-0.3-0.2-0.8-0.2-1.2-0.2
			c-0.5,0-0.9,0.1-1.2,0.2l-12,5.9C2.5,8,2.3,8.2,2.3,8.3c0,0.1,0.1,0.3,0.4,0.5l12.1,6.5c0.3,0.2,0.7,0.3,1.2,0.3
			C16.4,15.5,16.9,15.4,17.2,15.3z"/>
		<path fill="#9D9D9C" d="M29.4,7.6l-12-5.9c-0.7-0.3-2-0.3-2.7,0l-12,5.9c0,0-1.3,0.6-1.3,2.1c0,1.5,0,11.7,0,11.7
			c0,0.8,0.6,1.8,1.3,2.2l12.1,6.5c0,0,1.3,0.8,2.6,0l12.1-6.5c0.7-0.4,1.3-1.4,1.3-2.2c0,0,0-10.6,0-11.7
			C30.7,8.1,29.4,7.6,29.4,7.6z M2.9,8.1l12-5.9c0.6-0.3,1.6-0.3,2.2,0l12,5.9c0.2,0.1,0.3,0.2,0.3,0.2c0,0-0.1,0.1-0.2,0.2L17,15
			c-0.5,0.3-1.6,0.3-2.1,0L2.9,8.5C2.7,8.4,2.6,8.3,2.6,8.3l0,0C2.6,8.3,2.7,8.2,2.9,8.1z M15.5,29.4c0,0.2,0,0.4-0.2,0.4
			c-0.1,0-0.2,0-0.3-0.1L2.8,23.2c-0.6-0.3-1-1.1-1-1.7V9.8c0-0.2,0-0.4,0.2-0.4c0.1,0,0.2,0,0.3,0.1l12.1,6.5c0.6,0.3,1,1.1,1,1.7
			V29.4z M30.1,21.5c0,0.6-0.5,1.4-1,1.7L17,29.7c-0.1,0.1-0.2,0.1-0.3,0.1c-0.2,0-0.2-0.2-0.2-0.4V17.7c0-0.6,0.5-1.4,1-1.7
			l12.1-6.5c0.1-0.1,0.2-0.1,0.3-0.1c0.2,0,0.2,0.2,0.2,0.4V21.5z"/>
		<path fill="#FFFFFF" d="M29.4,7.6l-12-5.9c-0.7-0.3-2-0.3-2.7,0l-12,5.9c0,0-1.3,0.6-1.3,2.1c0,1.5,0,11.7,0,11.7
			c0,0.8,0.6,1.8,1.3,2.2l12.1,6.5c0,0,1.3,0.8,2.6,0l12.1-6.5c0.7-0.4,1.3-1.4,1.3-2.2c0,0,0-10.6,0-11.7
			C30.7,8.1,29.4,7.6,29.4,7.6z M2.9,8.1l12-5.9c0.6-0.3,1.6-0.3,2.2,0l12,5.9c0.2,0.1,0.3,0.2,0.3,0.2c0,0-0.1,0.1-0.2,0.2L17,15
			c-0.5,0.3-1.6,0.3-2.1,0L2.9,8.5C2.7,8.4,2.6,8.3,2.6,8.3l0,0C2.6,8.3,2.7,8.2,2.9,8.1z M15.5,29.4c0,0.2,0,0.4-0.2,0.4
			c-0.1,0-0.2,0-0.3-0.1L2.8,23.2c-0.6-0.3-1-1.1-1-1.7V9.8c0-0.2,0-0.4,0.2-0.4c0.1,0,0.2,0,0.3,0.1l12.1,6.5c0.6,0.3,1,1.1,1,1.7
			V29.4z M30.1,21.5c0,0.6-0.5,1.4-1,1.7L17,29.7c-0.1,0.1-0.2,0.1-0.3,0.1c-0.2,0-0.2-0.2-0.2-0.4V17.7c0-0.6,0.5-1.4,1-1.7
			l12.1-6.5c0.1-0.1,0.2-0.1,0.3-0.1c0.2,0,0.2,0.2,0.2,0.4V21.5z"/>
		<text text-anchor="middle" transform="matrix(1 0 0 1 16 11.5)" fill="{{colour_letter}}" 
			font-family="'HelveticaNeue-Bold'" font-size="10">{{initial}}</text>
	</g>
</g>
</svg>